HIERARCHY
ROOT Hips
{
	OFFSET 0.000000 0.000000 0.000000 
	CHANNELS 6 Xposition Yposition Zposition Zrotation Yrotation Xrotation
	JOINT LeftUpLeg
	{
		OFFSET 1.363060 -1.794630 0.839290 
		CHANNELS 3 Zrotation Yrotation Xrotation
		JOINT LeftLeg
		{
			OFFSET 2.448110 -6.726130 0.000000 
			CHANNELS 3 Zrotation Yrotation Xrotation
			JOINT LeftFoot
			{
				OFFSET 2.562200 -7.039590 0.000000 
				CHANNELS 3 Zrotation Yrotation Xrotation
				JOINT LeftToeBase
				{
					OFFSET 0.157640 -0.433110 2.322550 
					CHANNELS 3 Zrotation Yrotation Xrotation
					End Site
					{
						OFFSET 0.000000 0.000000 0.000000 
					}
				}
			}
		}
	}
	JOINT RightUpLeg
	{
		OFFSET -1.305520 -1.794630 0.839290 
		CHANNELS 3 Zrotation Yrotation Xrotation
		JOINT RightLeg
		{
			OFFSET -2.542530 -6.985550 0.000000 
			CHANNELS 3 Zrotation Yrotation Xrotation
			JOINT RightFoot
			{
				OFFSET -2.568260 -7.056230 0.000000 
				CHANNELS 3 Zrotation Yrotation Xrotation
				JOINT RightToeBase
				{
					OFFSET -0.164730 -0.452590 2.363150 
					CHANNELS 3 Zrotation Yrotation Xrotation
					End Site
					{
						OFFSET 0.000000 0.000000 0.000000 
					}
				}
			}
		}
	}
	JOINT Spine
	{
		OFFSET 0.028270 2.035590 -0.193380 
		CHANNELS 3 Zrotation Yrotation Xrotation
		JOINT Spine1
		{
			OFFSET 0.056720 2.048850 -0.042750 
			CHANNELS 3 Zrotation Yrotation Xrotation
			JOINT Neck1
			{
				OFFSET -0.054170 1.746240 0.172020 
				CHANNELS 3 Zrotation Yrotation Xrotation
				JOINT Head
				{
					OFFSET 0.104070 1.761360 -0.123970 
					CHANNELS 3 Zrotation Yrotation Xrotation
					End Site
					{
						OFFSET 0.000000 0.000000 0.000000 
					}
				}
			}
			JOINT LeftArm
			{
				OFFSET 3.362410 1.200890 -0.311210 
				CHANNELS 3 Zrotation Yrotation Xrotation
				JOINT LeftForeArm
				{
					OFFSET 4.983000 -0.000000 -0.000000 
					CHANNELS 3 Zrotation Yrotation Xrotation
					JOINT LeftHand
					{
						OFFSET 3.483560 -0.000000 -0.000000 
						CHANNELS 3 Zrotation Yrotation Xrotation
						JOINT LeftHandIndex1
						{
							OFFSET 0.715260 -0.000000 -0.000000 
							CHANNELS 3 Zrotation Yrotation Xrotation
							End Site
							{
								OFFSET 0.000000 0.000000 0.000000 
							}
						}
					}
				}
			}
			JOINT RightArm
			{
				OFFSET -3.136600 1.374050 -0.404650 
				CHANNELS 3 Zrotation Yrotation Xrotation
				JOINT RightForeArm
				{
					OFFSET -5.241900 -0.000000 -0.000000 
					CHANNELS 3 Zrotation Yrotation Xrotation
					JOINT RightHand
					{
						OFFSET -3.444170 -0.000000 -0.000000 
						CHANNELS 3 Zrotation Yrotation Xrotation
						JOINT RightHandIndex1
						{
							OFFSET -0.622530 -0.000000 -0.000000 
							CHANNELS 3 Zrotation Yrotation Xrotation
							End Site
							{
								OFFSET 0.000000 0.000000 0.000000 
							}
						}
					}
				}
			}
		}
	}
}
MOTION
Frames: 6
Frame Time: 0.041667
0.319626 17.884747 -0.057428 -1.457198 0.702695 -2.905414 -17.941927 -7.020397 10.449804 -1.973143 -1.051060 2.545235 -1.559559 7.400678 2.818842 0.399600 -4.058800 -11.242200 23.727036 9.795540 9.739405 0.417075 -2.428169 9.268765 2.128451 -12.306113 -4.997262 -0.314200 3.603500 -9.963700 1.088927 1.255323 3.368276 -1.624033 0.818350 -6.579677 5.651652 -14.862448 24.028321 3.171100 -7.759800 12.493100 -86.842650 1.803789 23.031689 17.427682 -21.263554 -2.586590 0.493543 1.052212 0.691744 -7.125000 0.000000 0.000000 82.176115 -9.731865 28.751851 -24.664753 30.302029 -5.273347 -0.802904 0.053484 6.111260 7.125000 0.000000 0.000000 
0.320513 17.881200 -0.059313 -1.505346 0.649190 -2.909940 -18.069813 -7.317012 9.458615 -1.863804 -0.280641 4.490564 -1.452554 6.877788 2.024694 0.399900 -4.060300 -11.246300 23.751429 9.735929 9.939364 0.445321 -2.270171 8.851503 2.160459 -12.427887 -4.629819 -0.525400 4.645200 -12.899400 1.086927 1.261263 3.381116 -1.648029 0.825075 -6.545001 5.614085 -14.838379 24.043591 3.147300 -7.744800 12.494200 -86.733422 1.757755 23.636589 17.683240 -21.621457 -2.676761 0.491655 1.033075 0.078470 -7.125000 0.000000 0.000000 82.146127 -9.677469 29.020023 -24.835075 30.499108 -5.355305 -0.811612 0.051482 5.660751 7.125000 0.000000 0.000000 
0.320180 17.878428 -0.060754 -1.546593 0.628506 -2.897278 -18.068296 -7.394009 9.184209 -1.832314 -0.084953 4.984288 -1.425032 6.750053 1.828659 0.411600 -4.118100 -11.409200 23.789473 9.714128 9.993495 0.456661 -2.208888 8.684606 2.175227 -12.488964 -4.469827 -0.668100 5.227200 -14.557600 1.097658 1.259500 3.386068 -1.646280 0.825130 -6.498656 5.615161 -14.836705 23.981533 3.149700 -7.744200 12.453800 -86.644745 1.741531 24.181890 18.023657 -22.098814 -2.801710 0.472773 1.043037 -0.371518 -7.125000 0.000000 0.000000 82.138943 -9.621411 29.156624 -24.974046 30.660809 -5.422641 -0.817951 0.053655 5.553535 7.125000 0.000000 0.000000 
0.320845 17.878317 -0.062085 -1.548192 0.615360 -2.906158 -18.105276 -7.450604 8.990323 -1.806998 0.069838 5.376046 -1.405951 6.665044 1.648871 0.418200 -4.150900 -11.501600 23.775044 9.687243 10.082724 0.468090 -2.149021 8.531851 2.175416 -12.483260 -4.470731 -0.619200 5.035600 -14.010300 1.094134 1.245133 3.409731 -1.643362 0.820260 -6.442507 5.627895 -14.830294 23.947069 3.152200 -7.737200 12.438900 -86.536695 1.700330 24.703855 18.408604 -22.636923 -2.948345 0.440170 1.076683 -0.644461 -7.125000 0.000000 0.000000 82.110921 -9.509690 29.359987 -25.071202 30.775542 -5.468522 -0.815002 0.054746 5.441049 7.125000 0.000000 0.000000 
0.320735 17.878650 -0.062972 -1.548671 0.606961 -2.921522 -18.110796 -7.449833 8.970333 -1.800915 0.096085 5.444976 -1.395709 6.615254 1.694783 0.424700 -4.182500 -11.590700 23.780983 9.678550 10.126238 0.469678 -2.137787 8.506275 2.170613 -12.457998 -4.472749 -0.607200 4.987700 -13.873500 1.094953 1.244567 3.410253 -1.633443 0.820798 -6.438620 5.603466 -14.837513 23.963255 3.136800 -7.740400 12.445600 -86.431336 1.594102 25.246604 18.592546 -22.893406 -3.021656 0.432767 1.087762 -0.987922 -7.125000 0.000000 0.000000 82.103592 -9.472222 29.493824 -25.221472 30.946219 -5.538424 -0.812922 0.050587 5.349769 7.125000 0.000000 0.000000 
0.320402 17.878982 -0.063859 -1.548204 0.597014 -2.928822 -18.094584 -7.410839 9.046467 -1.808986 0.040358 5.305509 -1.401946 6.641381 1.803438 0.392100 -4.020600 -11.134600 23.787172 9.703939 10.099719 0.465260 -2.162475 8.570373 2.168225 -12.449951 -4.500793 -0.614900 5.018500 -13.961400 1.106984 1.234489 3.403319 -1.598604 0.816145 -6.442865 5.605857 -14.832667 24.000181 3.143300 -7.742000 12.466600 -86.376869 1.480581 25.729957 18.674974 -23.008122 -3.054523 0.451835 1.067174 -1.482520 -7.125000 0.000000 0.000000 82.041917 -9.453644 29.712199 -25.399862 31.145610 -5.622808 -0.814372 0.046485 5.162220 7.125000 0.000000 0.000000 
